# xmcd
#
# Track frame offsets: 
#        150
#        13462
#        25777
#        37192
#        49585
#        60862
#        72767
#        82492
#        96147
#        110340
#        122412
#        132817
#        144902
#        158272
#        168877
#        179722
#        191277
#        202685
#        213470
#        224157
#        235782
#        246500
#        257450
#        267690
#        287750
#
# Disc length: 4058 seconds
#
# Revision: 1
# Processed by: cddbd v1.5.2PL0 Copyright (c) Steve Scherf et al.
# Submitted via: ExactAudioCopyFreeDBPlugin 1.0
#
DISCID=6a0fd819
DTITLE=Various Artist - Ralph Willis Complete Recorded Works Vol. 2 - Leroy D
DTITLE=allas Complete Recorded Works
DYEAR=1994
DGENRE=Blues
TTITLE0=Ralph Willis - Blues, Blues, Blues
TTITLE1=Ralph Willis - I Got a Letter
TTITLE2=Ralph Willis - Income Tax Blues
TTITLE3=Ralph Willis - Bed Tick
TTITLE4=Ralph Willis - Church Bell Blues
TTITLE5=Ralph Willis - Tell Me Pretty Baby
TTITLE6=Ralph Willis - Tell Me Pretty Baby
TTITLE7=Ralph Willis - Goodbye Blues
TTITLE8=Ralph Willis - Lazy Woman Blues
TTITLE9=Ralph Willis - Old Home Blues
TTITLE10=Ralph Willis - Salty Dog
TTITLE11=Ralph Willis - Cold Chills
TTITLE12=Ralph Willis - Amen
TTITLE13=Ralph Willis - Gonna Hop on Down the Line
TTITLE14=Ralph Willis - Do Right
TTITLE15=Ralph Willis - Door Bell Blues
TTITLE16=Ralph Willis - Why'd You Do It
TTITLE17=Leroy Dallas - I'm Down Now But I Won't Be Down Always
TTITLE18=Leroy Dallas - Jump Little Children Jump
TTITLE19=Leroy Dallas - Good Morning Blues
TTITLE20=Leroy Dallas - I'm Going Away
TTITLE21=Leroy Dallas - Your Sweet Man's Blues
TTITLE22=Leroy Dallas - Baby Please Don't Go Back to New Orleans
TTITLE23=Leroy Dallas - Sweet Man Blues
TTITLE24=Leroy Dallas - She Caught the M and O
EXTD=
EXTT0=
EXTT1=
EXTT2=
EXTT3=
EXTT4=
EXTT5=
EXTT6=
EXTT7=
EXTT8=
EXTT9=
EXTT10=
EXTT11=
EXTT12=
EXTT13=
EXTT14=
EXTT15=
EXTT16=
EXTT17=
EXTT18=
EXTT19=
EXTT20=
EXTT21=
EXTT22=
EXTT23=
EXTT24=
PLAYORDER=
